<?xml version="1.0" encoding="UTF-8"?>
<svg id="_レイヤー_2" data-name="レイヤー 2" xmlns="http://www.w3.org/2000/svg" viewBox="0 0 136.77 165.14">
  <defs>
    <style>
      .cls-1 {
        fill: none;
        stroke: #111;
        stroke-linecap: round;
        stroke-linejoin: round;
        stroke-width: 5px;
      }
    </style>
  </defs>
  <g id="design">
    <g>
      <path class="cls-1" d="M50.31,58.79c.23-.28,1.37-1.57,3.33-1.78,2.08-.22,3.52.95,3.76,1.16"/>
      <path class="cls-1" d="M84.38,58.79c-.23-.28-1.36-1.57-3.32-1.78-2.08-.22-3.52.95-3.77,1.16"/>
      <path class="cls-1" d="M53.16,99.27v4.17c0,1.05-.7,1.98-1.72,2.25,0,0-2.61.46-6.65,1.86-.94.32-1.95.7-3.02,1.13-5.72,2.31-13.2,6.24-20.26,12.73-11.18,10.29-16.94,28.24-19.01,41.23"/>
      <path class="cls-1" d="M134.27,162.64c-1.89-11.86-6.86-27.87-16.25-38.39-.87-1-1.8-1.95-2.77-2.84-9.81-9.03-20.45-13.1-26.02-14.75-2.44-.72-3.91-.97-3.91-.97-.9-.13-1.68-.59-2.24-1.23-.56-.65-.89-1.49-.89-2.4v-2.79"/>
      <line class="cls-1" x1="28.15" y1="143.44" x2="28.15" y2="162.64"/>
      <line class="cls-1" x1="107.2" y1="143.44" x2="107.2" y2="162.64"/>
      <path class="cls-1" d="M31.94,50.77c-2.29-.23-7.45-.06-9.46,5.81-2.59,7.58,2.5,17.68,10.58,16.75,2.78,10.63,10.51,19.26,20.58,23.27,3.94,1.57,8.24,2.43,12.73,2.43h1.95c4.5,0,8.8-.86,12.74-2.43,10.07-4.02,17.8-12.65,20.58-23.28,2.37.31,4.49-.33,6.23-1.58,4.27-3.06,6.32-9.75,4.48-15.16-2.05-5.99-7.38-6.05-9.6-5.79"/>
      <path class="cls-1" d="M48.27,107.59s.1.47.4,1.21c1.19,2.95,5.59,10.28,19.83,10.07,12.88-.18,17.96-6.45,19.79-9.91.7-1.33.92-2.24.92-2.24"/>
      <path class="cls-1" d="M26.56,48.88c-.37-3.08-1.98-19.35,9.39-32.34C46.01,5.06,63.81-1.1,77.51,4.75c4.13,1.77,7.1,4.3,9.03,6.27,5.36-.07,8.97,1.48,11.04,2.67,9.4,5.4,13.87,18.8,11.09,33.59"/>
      <path class="cls-1" d="M76.96,71.14c1.97,2.55,4.43,4.71,7.22,6.31"/>
      <path class="cls-1" d="M97.45,46.27c-18.45-6.27-18.52-22.29-18.52-22.29-4.64,10.56-12.24,13.85-20.86,15.67-3.31.7-6.71.83-9.99,1.64-3.28.82-6.56,2.44-8.46,5.39"/>
      <line class="cls-1" x1="48.27" y1="109" x2="50.95" y2="162.64"/>
      <line class="cls-1" x1="88.37" y1="109" x2="85.69" y2="162.64"/>
      <path class="cls-1" d="M108.72,72.02c-.11,2.38-.12,5.07,1.56,6.77,1.21,1.22,3,1.6,4.59,2.25,4.32,1.75,7.58,5.89,8.26,10.51.69,4.61-1.23,9.52-4.86,12.45,2.96,2.27,4.82,5.9,4.93,9.62s-1.53,7.46-4.36,9.89"/>
    </g>
  </g>
</svg>