<?xml version="1.0" encoding="UTF-8"?>
<svg id="_レイヤー_2" data-name="レイヤー 2" xmlns="http://www.w3.org/2000/svg" viewBox="0 0 136.76 161.01">
  <defs>
    <style>
      .cls-1 {
        fill: none;
        stroke: #111;
        stroke-linecap: round;
        stroke-linejoin: round;
        stroke-width: 5px;
      }
    </style>
  </defs>
  <g id="design">
    <g>
      <path class="cls-1" d="M50.31,56.66c.23-.28,1.36-1.57,3.32-1.78,2.08-.22,3.52.95,3.77,1.16"/>
      <path class="cls-1" d="M84.38,56.66c-.23-.28-1.36-1.57-3.32-1.78-2.08-.22-3.52.95-3.77,1.16"/>
      <path class="cls-1" d="M53.16,95.14v4.17c0,1.05-.7,1.98-1.72,2.25,0,0-2.78.49-7.06,2.01-.82.28-1.69.61-2.61.98-5.72,2.31-13.2,6.24-20.26,12.73-11.19,10.29-16.94,28.24-19.01,41.23"/>
      <path class="cls-1" d="M134.26,158.51c-2.07-12.99-7.83-30.94-19.01-41.23-7.94-7.3-16.42-11.36-22.32-13.52-4.59-1.67-7.61-2.2-7.61-2.2-.9-.13-1.68-.59-2.24-1.23-.56-.65-.89-1.49-.89-2.4v-2.79"/>
      <line class="cls-1" x1="28.15" y1="139.31" x2="28.15" y2="158.51"/>
      <line class="cls-1" x1="107.2" y1="139.31" x2="107.2" y2="158.51"/>
      <path class="cls-1" d="M31.94,46.64c-.88-.09-2.2-.12-3.59.22-2.22.53-4.64,1.99-5.87,5.59-2.59,7.58,2.49,17.68,10.58,16.75,2.78,10.63,10.51,19.26,20.57,23.27,3.94,1.57,8.24,2.43,12.74,2.43h1.95c4.5,0,8.8-.86,12.74-2.43,10.07-4.02,17.8-12.65,20.57-23.28,8.17,1.06,13.32-9.12,10.72-16.74-1.38-4.04-4.26-5.38-6.66-5.75-1.17-.18-2.22-.12-2.94-.04"/>
      <path class="cls-1" d="M105.73,46.48c.25-16.12-2.29-28.71-15.18-37.76C80.33,1.55,63.25.56,50.87,5.86c-7.59,3.24-14.66,10.62-17.86,16.8-5.82,11.22-4.66,23.82-4.66,23.82"/>
      <polyline class="cls-1" points="44.74 104.58 68.46 123.5 92.74 104.3"/>
      <path class="cls-1" d="M38.87,42.56s21.08-4.43,27.67-24.38c0,0,7.34,20.05,29.18,24.38"/>
      <path class="cls-1" d="M106.65,78.03c.3,4.78,1.31,9.87,4.76,13.19,2.08,2.01,4.83,3.14,7.21,4.77,4.55,3.11,7.75,8.13,8.63,13.57s-.56,11.22-3.89,15.6"/>
    </g>
  </g>
</svg>