<?xml version="1.0" encoding="UTF-8"?>
<svg id="_レイヤー_2" data-name="レイヤー 2" xmlns="http://www.w3.org/2000/svg" viewBox="0 0 136.77 161.01">
  <defs>
    <style>
      .cls-1 {
        fill: none;
        stroke: #111;
        stroke-linecap: round;
        stroke-linejoin: round;
        stroke-width: 5px;
      }
    </style>
  </defs>
  <g id="design">
    <g>
      <path class="cls-1" d="M50.32,56.66c.23-.28,1.36-1.57,3.32-1.78,2.08-.22,3.52.95,3.77,1.16"/>
      <path class="cls-1" d="M84.39,56.66c-.23-.28-1.37-1.57-3.33-1.78-2.08-.22-3.52.95-3.76,1.16"/>
      <path class="cls-1" d="M53.17,95.14v4.17c0,1.05-.7,1.98-1.72,2.25,0,0-2.79.49-7.07,2.01-.82.28-1.69.61-2.6.98-5.72,2.31-13.21,6.24-20.26,12.73-11.19,10.29-16.95,28.24-19.02,41.23"/>
      <path class="cls-1" d="M134.27,158.51c-2.07-12.99-7.83-30.94-19.01-41.23-7.94-7.3-16.42-11.36-22.32-13.52-4.59-1.67-7.61-2.2-7.61-2.2-.9-.13-1.68-.59-2.24-1.23-.56-.65-.89-1.49-.89-2.4v-2.79"/>
      <line class="cls-1" x1="28.16" y1="139.31" x2="28.16" y2="158.51"/>
      <line class="cls-1" x1="107.21" y1="139.31" x2="107.21" y2="158.51"/>
      <path class="cls-1" d="M31.95,46.64c-.88-.09-2.2-.12-3.59.22-.2.04-.39.1-.58.16-2.05.64-4.17,2.14-5.29,5.43-2.59,7.58,2.49,17.68,10.58,16.75,2.78,10.63,10.51,19.26,20.57,23.27,3.94,1.57,8.24,2.43,12.74,2.43h1.95c4.5,0,8.8-.86,12.74-2.43,10.07-4.02,17.8-12.65,20.57-23.28,8.17,1.06,13.32-9.12,10.72-16.74-1.38-4.04-4.26-5.38-6.66-5.75-1.17-.18-2.22-.12-2.94-.04"/>
      <path class="cls-1" d="M32.07,47.08s35.8,2.07,46.98-23.09c0,0,6.17,20.66,23.65,23.06.06.01.13.02.19.03"/>
      <path class="cls-1" d="M28.36,46.48s-1.16-12.6,4.66-23.82c3.2-6.18,10.27-13.56,17.86-16.8,12.38-5.3,29.46-4.31,39.68,2.86,12.89,9.05,15.43,21.64,15.18,37.76"/>
      <path class="cls-1" d="M44.75,104.58s2.82,11.57,23.72,11.57,24.28-11.85,24.28-11.85"/>
      <circle class="cls-1" cx="27.77" cy="74.18" r="4.52"/>
      <circle class="cls-1" cx="104.95" cy="74.18" r="4.52"/>
      <path class="cls-1" d="M28.15,85.85c-.28,6.02-3.95,9.98-7.34,12.23-6.77,4.52-8.19,15.25-2.88,20.71"/>
      <path class="cls-1" d="M108.51,85.85c.28,6.02,3.95,9.98,7.34,12.23,6.77,4.52,8.18,15.25,2.88,20.71"/>
    </g>
  </g>
</svg>