<?xml version="1.0" encoding="UTF-8"?>
<svg id="_レイヤー_2" data-name="レイヤー 2" xmlns="http://www.w3.org/2000/svg" viewBox="0 0 136.77 158.95">
  <defs>
    <style>
      .cls-1 {
        fill: none;
        stroke: #111;
        stroke-linecap: round;
        stroke-linejoin: round;
        stroke-width: 5px;
      }
    </style>
  </defs>
  <g id="design">
    <g>
      <path class="cls-1" d="M50.38,54.6c.23-.27,1.36-1.56,3.32-1.77,2.08-.22,3.52.95,3.77,1.15"/>
      <path class="cls-1" d="M84.44,54.6c-.22-.27-1.36-1.56-3.32-1.77-2.08-.22-3.52.95-3.76,1.15"/>
      <path class="cls-1" d="M53.17,93.08v6.95s4.8,5.12,14.74,5.12,14.29-5.12,14.29-5.12v-6.95"/>
      <path class="cls-1" d="M100.87,68.86c.31-.89.59-1.8.83-2.72,8.16,1.06,13.32-9.12,10.71-16.74-2.04-6-7.38-6.05-9.59-5.79v-6.68c0-19.02-15.42-34.43-34.43-34.43h-1.95c-19.02,0-34.44,15.41-34.44,34.43v6.66c-2.28-.24-7.45-.07-9.46,5.81-2.58,7.57,2.5,17.68,10.59,16.75,2.89,11.08,11.18,19.99,21.9,23.75,3.57,1.26,7.41,1.94,11.41,1.94h1.95c3.5,0,6.88-.52,10.06-1.49,6.36-1.94,11.95-5.68,16.16-10.62,2.7-3.17,4.84-6.85,6.26-10.87Z"/>
      <path class="cls-1" d="M51.45,99.5s-15.82,2.74-29.94,15.72c-11.18,10.29-16.94,28.24-19.01,41.23"/>
      <path class="cls-1" d="M85.32,99.5s8.9,1.54,19.31,7.79c3.47,2.08,7.1,4.68,10.63,7.93,11.18,10.29,16.94,28.24,19.01,41.23"/>
      <line class="cls-1" x1="32" y1="42.21" x2="100.61" y2="42.21"/>
      <path class="cls-1" d="M103.1,69.17s10.25-.31,11.49,11.81c1.24,12.11,5.28,21.43,11.8,20.49,0,0-8.32,11.35-18.9,5.14-1.03-.6-2.08-1.37-3.15-2.34-10.37-9.37-8.64-23.34-8.5-24.37,0-.04,0-.06,0-.06"/>
      <line class="cls-1" x1="53.68" y1="40.7" x2="53.68" y2="28.28"/>
      <line class="cls-1" x1="80.32" y1="40.7" x2="80.32" y2="28.28"/>
      <line class="cls-1" x1="28.16" y1="137.25" x2="28.16" y2="156.45"/>
      <line class="cls-1" x1="107.21" y1="137.25" x2="107.21" y2="156.45"/>
    </g>
  </g>
</svg>