<?xml version="1.0" encoding="UTF-8"?>
<svg id="_レイヤー_2" data-name="レイヤー 2" xmlns="http://www.w3.org/2000/svg" viewBox="0 0 136.77 163.61">
  <defs>
    <style>
      .cls-1 {
        fill: none;
        stroke: #111;
        stroke-linecap: round;
        stroke-linejoin: round;
        stroke-width: 5px;
      }
    </style>
  </defs>
  <g id="design">
    <g>
      <path class="cls-1" d="M50.32,59.26c.23-.28,1.36-1.57,3.32-1.78,2.08-.22,3.52.95,3.77,1.16"/>
      <path class="cls-1" d="M84.39,59.26c-.23-.28-1.37-1.57-3.33-1.78-2.08-.22-3.52.95-3.76,1.16"/>
      <path class="cls-1" d="M53.17,97.74v4.17c0,1.05-.7,1.98-1.72,2.25,0,0-3.96.69-9.67,2.99-.36.14-.72.3-1.09.45-5.56,2.36-12.56,6.2-19.17,12.28-.7.64-1.38,1.32-2.03,2.02-9.87,10.49-15.05,27.03-16.99,39.21"/>
      <path class="cls-1" d="M134.27,161.11c-2.01-12.58-7.47-29.82-17.98-40.24-.34-.34-.68-.67-1.03-.99-8.83-8.11-18.31-12.23-24.18-14.17-3.53-1.16-5.75-1.55-5.75-1.55-.9-.13-1.68-.59-2.24-1.23-.56-.65-.89-1.49-.89-2.4v-2.79"/>
      <line class="cls-1" x1="28.16" y1="141.91" x2="28.16" y2="161.11"/>
      <line class="cls-1" x1="107.21" y1="141.91" x2="107.21" y2="161.11"/>
      <path class="cls-1" d="M31.95,49.24c-.88-.09-2.2-.12-3.59.22-2.22.53-4.64,1.99-5.87,5.59-2.23,6.51,1.21,14.89,7.36,16.53,1,.26,2.08.35,3.22.22,2.78,10.63,10.51,19.26,20.57,23.27,3.94,1.57,8.24,2.43,12.74,2.43h1.95c4.5,0,8.8-.86,12.74-2.43,10.07-4.02,17.8-12.65,20.57-23.28.4.05.79.08,1.17.08,7.48,0,12.02-9.57,9.55-16.82-1.71-5-5.71-5.87-8.27-5.87-.51,0-.96.04-1.33.08"/>
      <path class="cls-1" d="M27.44,45.35c-.36-3.08-1.34-18.55,8.4-29.34C46.07,4.69,63.25-.45,77.39,4.22c3.11,1.03,7.11,3.3,9.04,5.27,5.36-.07,8.97,2.48,11.03,3.67,9.41,5.4,14.09,23.43,11.1,33.97"/>
      <path class="cls-1" d="M79.37,24.54s-9.98-7.15-20.62,4.14c-9.64,10.25-12.98,22.31-26.8,20.56"/>
      <path class="cls-1" d="M85.58,28.31c1.84.82,4.07,2.11,6.21,4.14,6.41,6.11,7.05,14.31,7.15,16.75"/>
      <path class="cls-1" d="M107.04,72.35c-.06.26-.12.52-.18.79-.86,4.08-1.33,9.71.93,15.4,2.15,5.4,5.23,7.02,7.91,12.05,2.1,3.96,4.06,10.23,2.63,19.95"/>
      <path class="cls-1" d="M29.62,72.35c.96,4.13,1.66,10.12-.76,16.19-2.14,5.4-5.22,7.02-7.9,12.05-2.11,3.96-4.07,10.23-2.64,19.95"/>
      <polyline class="cls-1" points="45.1 108.12 47.73 111.84 51.88 117.72 51.88 161.11"/>
      <polyline class="cls-1" points="90.14 108.12 87.17 112.33 83.37 117.72 83.37 161.11"/>
      <path class="cls-1" d="M47.8,111.79c2.14,1.31,9.19,5.31,19.45,5.27,10.08-.04,16.99-3.95,19.15-5.27"/>
    </g>
  </g>
</svg>