<?xml version="1.0" encoding="UTF-8"?>
<svg id="_レイヤー_2" data-name="レイヤー 2" xmlns="http://www.w3.org/2000/svg" viewBox="0 0 152.01 165.82">
  <defs>
    <style>
      .cls-1 {
        fill: none;
        stroke: #111;
        stroke-linecap: round;
        stroke-linejoin: round;
        stroke-width: 5px;
      }
    </style>
  </defs>
  <g id="design">
    <g>
      <path class="cls-1" d="M47.8,108.94l-32.64,16.24c-2.97,1.44-5.44,3.73-7.09,6.59-1.03,1.78-1.86,3.66-2.48,5.61-.62,1.94-1.03,3.96-1.23,6l-1.86,19.57"/>
      <path class="cls-1" d="M104.21,108.94l32.64,16.24c2.97,1.44,5.44,3.73,7.09,6.59,1.03,1.78,1.86,3.66,2.48,5.61.62,1.94,1.04,3.96,1.23,6l1.86,19.57"/>
      <polygon class="cls-1" points="76 115.97 66.17 124.89 62.77 127.98 49.68 111.33 47.8 108.94 59.16 101.48 76 115.97"/>
      <polygon class="cls-1" points="76 115.97 85.76 124.82 89.24 127.98 102.33 111.33 104.21 108.94 92.85 101.48 92.67 101.63 76 115.97"/>
      <polyline class="cls-1" points="49.33 110.28 49.68 111.33 64.07 154.36 66.97 163.02 67.07 163.32"/>
      <polyline class="cls-1" points="102.68 110.28 102.33 111.33 87.92 154.4 85.04 163.02 84.94 163.32"/>
      <polyline class="cls-1" points="84.33 126.4 81.07 135.5 80.93 135.9 70.95 135.9 70.81 135.5 67.54 126.4"/>
      <line class="cls-1" x1="69.7" y1="135.9" x2="64.91" y2="154.08"/>
      <line class="cls-1" x1="82.18" y1="135.9" x2="86.97" y2="154.08"/>
      <path class="cls-1" d="M40.48,51.91v2.35c-.98.08-2.08.29-3.16.78-1.72.79-3.36,2.29-4.3,5.05-2.37,6.94,1.68,15.99,8.58,16.77,2.54,9.69,9.21,17.72,18.01,22.1,4.61,2.29,9.81,3.58,15.3,3.58h1.95c5,0,9.75-1.06,14.03-2.98,9.43-4.21,16.61-12.54,19.27-22.69,6.99-.68,11.11-9.8,8.73-16.78-1.57-4.58-5.05-5.68-7.6-5.84v-2.34"/>
      <path class="cls-1" d="M36.89,54.16s-3.13-15.12,3.05-28.58c3.4-7.41,10.92-15.17,18.99-19.06,13.17-6.35,31.32-5.16,42.19,3.44,13.7,10.85,19.08,24.97,14.24,44.2"/>
      <path class="cls-1" d="M48.32,42.96s21.39-.64,31-13.35l-2.17,7.91s8.37,3.67,22.02-8.19"/>
      <line class="cls-1" x1="18.18" y1="139.05" x2="24.1" y2="162.95"/>
      <line class="cls-1" x1="133.83" y1="139.05" x2="127.91" y2="162.95"/>
      <path class="cls-1" d="M58.85,61.3c.23-.27,1.36-1.57,3.32-1.78,2.08-.22,3.52.95,3.77,1.16"/>
      <path class="cls-1" d="M92.92,61.3c-.23-.27-1.37-1.57-3.33-1.78-2.08-.22-3.52.95-3.76,1.16"/>
    </g>
  </g>
</svg>