<?xml version="1.0" encoding="UTF-8"?>
<svg id="_レイヤー_2" data-name="レイヤー 2" xmlns="http://www.w3.org/2000/svg" viewBox="0 0 152.75 162.24">
  <defs>
    <style>
      .cls-1 {
        fill: none;
        stroke: #111;
        stroke-linecap: round;
        stroke-linejoin: round;
        stroke-width: 5px;
      }
    </style>
  </defs>
  <g id="design">
    <g>
      <path class="cls-1" d="M41.4,44.96s31.21-3.75,50.48-21.26"/>
      <path class="cls-1" d="M61.63,103.33l-6.17-4.01-9.15,7.26s-11.4,4.24-17.12,7.35c-11.58,6.28-17.52,14.91-21.25,23.48-3.72,8.57-5.44,22.33-5.44,22.33"/>
      <line class="cls-1" x1="28.74" y1="138.09" x2="28.94" y2="159.74"/>
      <line class="cls-1" x1="124.01" y1="138.09" x2="123.81" y2="159.74"/>
      <polyline class="cls-1" points="61.63 96.38 61.63 103.33 76.37 111.46 90.66 103.33 90.66 96.38"/>
      <path class="cls-1" d="M40.47,46.51v2.35c-.21.02-.43.04-.66.07-2.43.34-5.39,1.64-6.8,5.76-2.37,6.93,1.69,15.99,8.58,16.76,2.79,10.62,10.52,19.25,20.58,23.26,3.94,1.57,8.24,2.43,12.73,2.43h1.95c4.62,0,9.03-.91,13.05-2.56,9.91-4.06,17.5-12.61,20.26-23.12,6.98-.67,11.1-9.79,8.72-16.77-1.33-3.89-4.04-5.27-6.4-5.69-.41-.08-.82-.13-1.2-.15v-2.34"/>
      <path class="cls-1" d="M39.79,48.76s-2.91-13.54,2.82-25.6c3.15-6.63,10.12-13.57,17.6-17.06,12.21-5.69,29.04-4.62,39.11,3.08,12.71,9.72,17.69,22.36,13.21,39.58"/>
      <polyline class="cls-1" points="45.01 108.35 63.56 126.05 71.27 117.39"/>
      <path class="cls-1" d="M150.25,159.74s-1.72-13.76-5.45-22.33c-3.72-8.57-9.67-17.2-21.24-23.48-5.72-3.11-17.12-7.35-17.12-7.35l-9.15-7.26-6.18,4.01"/>
      <polyline class="cls-1" points="107.73 108.35 89.19 126.05 81.47 117.39"/>
      <path class="cls-1" d="M58.84,55.9c.23-.27,1.37-1.57,3.33-1.78,2.08-.22,3.51.95,3.76,1.16"/>
      <path class="cls-1" d="M92.91,55.9c-.23-.27-1.36-1.57-3.32-1.78-2.08-.22-3.52.95-3.77,1.16"/>
    </g>
  </g>
</svg>