<?xml version="1.0" encoding="UTF-8"?>
<svg id="_レイヤー_2" data-name="レイヤー 2" xmlns="http://www.w3.org/2000/svg" viewBox="0 0 152.75 171.41">
  <defs>
    <style>
      .cls-1 {
        fill: none;
        stroke: #111;
        stroke-linecap: round;
        stroke-linejoin: round;
        stroke-width: 5px;
      }
    </style>
  </defs>
  <g id="design">
    <g>
      <path class="cls-1" d="M57.89,116.48s-15.65,3.73-28.7,10.81c-11.57,6.28-17.52,14.91-21.24,23.48-3.73,8.57-5.45,18.14-5.45,18.14"/>
      <path class="cls-1" d="M40.47,57.87v2.35c-.95.08-2.02.28-3.07.74-1.74.78-3.43,2.28-4.39,5.09-2.37,6.94,1.69,15.99,8.59,16.77,2.9,11.08,11.19,19.98,21.89,23.74,3.57,1.26,7.41,1.94,11.41,1.94h1.95c3.5,0,6.87-.52,10.05-1.49,11.36-3.46,20.23-12.64,23.26-24.18,6.98-.68,11.11-9.8,8.72-16.78-1.56-4.58-5.05-5.68-7.59-5.84v-2.34"/>
      <line class="cls-1" x1="28.74" y1="151.45" x2="28.94" y2="168.91"/>
      <path class="cls-1" d="M94.86,116.48s15.65,3.73,28.7,10.81c11.58,6.28,17.52,14.91,21.25,23.48,3.72,8.57,5.44,18.14,5.44,18.14"/>
      <line class="cls-1" x1="124.01" y1="151.45" x2="123.81" y2="168.91"/>
      <path class="cls-1" d="M61.64,109.74v6.95s4.8,5.11,14.74,5.11,14.28-5.11,14.28-5.11v-6.95"/>
      <path class="cls-1" d="M115.02,56.72s4.98-18.25-1.18-31.53c-.68-1.45-2.38-4.7-5.4-8.22-7.82-9.11-17.76-12.1-21.69-13.04-3.47-.82-18.83-4.49-30.22,4.52-2.66,2.11-4.41,4.36-5.47,5.93-4,1.38-6.76,3.34-8.64,5.08-9.04,8.38-10.82,23.81-5.55,39.53"/>
      <path class="cls-1" d="M58.85,66.26c.23-.27,1.36-1.57,3.32-1.78,2.08-.22,3.52.95,3.77,1.16"/>
      <path class="cls-1" d="M92.91,66.26c-.23-.27-1.36-1.57-3.32-1.78-2.08-.22-3.52.95-3.77,1.16"/>
      <path class="cls-1" d="M48.66,50.8c1.56-1.43,3.15-3.02,4.73-4.8,5.07-5.68,8.48-11.46,10.8-16.37,2.67,3.62,7.71,9.45,15.82,14.12,9.38,5.39,18.21,6.51,22.87,6.77"/>
    </g>
  </g>
</svg>