<?xml version="1.0" encoding="UTF-8"?>
<svg id="_レイヤー_2" data-name="レイヤー 2" xmlns="http://www.w3.org/2000/svg" viewBox="0 0 152 171.78">
  <defs>
    <style>
      .cls-1 {
        fill: none;
        stroke: #111;
        stroke-linecap: round;
        stroke-linejoin: round;
        stroke-width: 5px;
      }
    </style>
  </defs>
  <g id="design">
    <g>
      <path class="cls-1" d="M47.79,114.9s-7.08,3.44-16.49,8.28c-7.39,3.81-18.72,9.59-22.96,18.07-5.27,10.54-5.84,27.66-5.84,27.66"/>
      <path class="cls-1" d="M104.21,114.9s7.09,3.44,16.49,8.28c7.4,3.81,18.72,9.59,22.96,18.07,5.27,10.54,5.84,27.66,5.84,27.66"/>
      <polygon class="cls-1" points="76 121.93 66.17 130.85 62.77 133.94 49.69 117.31 47.79 114.9 59.15 107.44 76 121.93"/>
      <polygon class="cls-1" points="76 121.93 85.76 130.79 89.23 133.94 102.31 117.31 104.21 114.9 92.85 107.44 92.67 107.6 76 121.93"/>
      <polyline class="cls-1" points="49.33 116.24 49.69 117.31 64.06 160.32 66.96 168.98 67.06 169.28"/>
      <polyline class="cls-1" points="102.67 116.24 102.31 117.31 87.92 160.36 85.04 168.98 84.94 169.28"/>
      <polyline class="cls-1" points="84.33 132.36 81.06 141.46 80.92 141.86 70.95 141.86 70.81 141.46 67.54 132.36"/>
      <line class="cls-1" x1="69.7" y1="141.86" x2="64.9" y2="160.04"/>
      <line class="cls-1" x1="82.17" y1="141.86" x2="86.97" y2="160.04"/>
      <path class="cls-1" d="M40.47,57.87v2.35c-.63.05-1.32.16-2.01.36-2.1.61-4.29,2.1-5.45,5.47-2.37,6.94,1.69,15.99,8.59,16.77,2.54,9.69,9.2,17.72,18,22.1,4.61,2.29,9.81,3.58,15.3,3.58h1.95c5,0,9.75-1.06,14.03-2.98,9.43-4.21,16.61-12.54,19.28-22.69,6.98-.68,11.11-9.8,8.72-16.78-1.56-4.58-5.05-5.68-7.59-5.84v-2.34"/>
      <line class="cls-1" x1="21.89" y1="144.26" x2="24.09" y2="168.91"/>
      <line class="cls-1" x1="133.82" y1="145.01" x2="127.91" y2="168.91"/>
      <path class="cls-1" d="M85.56,73.29c1.97,2.55,4.43,4.71,7.22,6.31"/>
      <path class="cls-1" d="M62.13,32.82c-.98,9.73-6.59,16.95-14.33,19.45"/>
      <path class="cls-1" d="M69.25,28.98c2.5-3.03,7.34-4.23,11.08-2.75,3.39,1.34,5.51,4.44,6.88,7.57,1.36,3.13,2.18,6.49,3.99,9.42,2.82,4.55,8.06,7.76,13.78,8.44"/>
      <path class="cls-1" d="M115.95,56.72s4.98-18.25-1.18-31.53c-.67-1.45-2.38-4.7-5.4-8.22-7.82-9.11-17.75-12.1-21.69-13.04-3.47-.82-18.82-4.49-30.21,4.52-2.66,2.11-4.42,4.36-5.48,5.93-4,1.38-6.76,3.34-8.64,5.08-9.04,8.38-10.81,23.81-5.54,39.53"/>
      <path class="cls-1" d="M58.85,63.26c.23-.27,1.36-1.57,3.32-1.78,2.08-.22,3.52.95,3.77,1.16"/>
      <path class="cls-1" d="M92.91,63.26c-.23-.27-1.36-1.57-3.32-1.78-2.08-.22-3.52.95-3.77,1.16"/>
    </g>
  </g>
</svg>