<?xml version="1.0" encoding="UTF-8"?>
<svg id="_レイヤー_2" data-name="レイヤー 2" xmlns="http://www.w3.org/2000/svg" viewBox="0 0 136.76 175.84">
  <defs>
    <style>
      .cls-1 {
        fill: none;
        stroke: #111;
        stroke-linecap: round;
        stroke-linejoin: round;
        stroke-width: 5px;
      }
    </style>
  </defs>
  <g id="design">
    <g>
      <path class="cls-1" d="M50.31,71.49c.23-.28,1.36-1.57,3.32-1.78,2.08-.22,3.52.95,3.77,1.16"/>
      <path class="cls-1" d="M84.38,71.49c-.23-.28-1.36-1.57-3.32-1.78-2.08-.22-3.52.95-3.77,1.16"/>
      <path class="cls-1" d="M53.16,109.97v4.17c0,1.05-.7,1.98-1.72,2.25,0,0-3.95.69-9.67,2.99-.2.08-.4.16-.6.25-5.63,2.33-12.84,6.21-19.66,12.48-11.19,10.29-16.94,28.24-19.01,41.23"/>
      <path class="cls-1" d="M134.26,173.34c-2.07-12.99-7.83-30.94-19.01-41.23-7.72-7.1-15.95-11.13-21.82-13.34-4.87-1.81-8.11-2.38-8.11-2.38-.9-.13-1.68-.59-2.24-1.23-.56-.65-.89-1.49-.89-2.4v-2.79"/>
      <line class="cls-1" x1="28.15" y1="154.14" x2="28.15" y2="173.34"/>
      <line class="cls-1" x1="107.2" y1="154.14" x2="107.2" y2="173.34"/>
      <path class="cls-1" d="M31.94,61.47c-.88-.09-2.2-.12-3.59.22-2.22.53-4.64,1.99-5.87,5.59-2.59,7.58,2.49,17.68,10.58,16.75,2.78,10.63,10.51,19.26,20.57,23.27,3.94,1.57,8.24,2.43,12.74,2.43h1.95c4.5,0,8.8-.86,12.74-2.43,10.07-4.02,17.8-12.65,20.57-23.28,8.17,1.06,13.32-9.12,10.72-16.74-1.38-4.04-4.26-5.38-6.66-5.75-1.17-.18-2.22-.12-2.94-.04"/>
      <path class="cls-1" d="M105.73,61.31c.16-10.5-.86-19.51-5.17-27.01-2.29-4.01-5.52-7.6-10.01-10.75-7.69-5.4-19.27-7.29-29.8-5.64-3.46.54-6.81,1.47-9.88,2.78-7.59,3.24-14.66,10.62-17.86,16.8-5.82,11.22-4.66,23.82-4.66,23.82"/>
      <path class="cls-1" d="M43.21,55.73c6.51-.69,12.78-3.46,17.66-7.82-1.48,1.69-3,4.22-1.57,5.95.97,1.2,2.79,1.17,4.31.92,4.55-.77,8.89-2.72,12.5-5.59-1.15,1.38-.33,3.67,1.22,4.57,1.56.91,3.51.75,5.25.29,2.83-.74,5.48-2.19,7.62-4.19"/>
      <path class="cls-1" d="M41.55,120.54s4.32,7.62,25.64,7.62,25.63-7.62,25.63-7.62"/>
      <path class="cls-1" d="M60.58,16.77c.82-2.46,3.11-8.19,8.82-11.62,8.99-5.41,19.61-1,21.46-.19,8.77,3.86,9.28,9.9,17.88,12.61,5.03,1.59,9.65,1.03,12.54.43.51,1.07,1.13,2.78,1.01,4.84-.34,6.09-6.73,9.53-7.9,10.17-5.99,3.22-12.05,1.58-13.56,1.13"/>
    </g>
  </g>
</svg>