<?xml version="1.0" encoding="UTF-8"?>
<svg id="_レイヤー_2" data-name="レイヤー 2" xmlns="http://www.w3.org/2000/svg" viewBox="0 0 152 171.95">
  <defs>
    <style>
      .cls-1 {
        fill: none;
        stroke: #111;
        stroke-linecap: round;
        stroke-linejoin: round;
        stroke-width: 5px;
      }
    </style>
  </defs>
  <g id="design">
    <g>
      <path class="cls-1" d="M47.56,116.35l-32.41,14.96c-2.97,1.44-5.44,3.73-7.09,6.59-1.02,1.78-1.85,3.66-2.47,5.61-.62,1.94-1.03,3.96-1.23,6l-1.86,19.57"/>
      <path class="cls-1" d="M104.21,115.07l32.64,16.24c2.97,1.44,5.44,3.73,7.09,6.59,1.02,1.78,1.85,3.66,2.47,5.61.62,1.94,1.03,3.96,1.23,6l1.86,19.57"/>
      <polygon class="cls-1" points="76 122.1 66.17 131.02 62.77 134.11 49.69 117.48 48.32 115.75 47.79 115.07 59.15 107.61 76 122.1"/>
      <polygon class="cls-1" points="76 122.1 85.76 130.96 89.23 134.11 102.31 117.48 104.21 115.07 92.85 107.61 92.67 107.77 76 122.1"/>
      <polyline class="cls-1" points="49.33 116.41 49.69 117.48 64.06 160.49 66.96 169.15 67.06 169.45"/>
      <polyline class="cls-1" points="102.67 116.41 102.31 117.48 87.92 160.53 85.04 169.15 84.94 169.45"/>
      <polyline class="cls-1" points="84.33 132.53 81.06 141.63 80.92 142.03 70.94 142.03 70.8 141.64 67.54 132.53"/>
      <line class="cls-1" x1="69.7" y1="142.03" x2="64.9" y2="160.21"/>
      <line class="cls-1" x1="82.17" y1="142.03" x2="86.97" y2="160.21"/>
      <path class="cls-1" d="M40.47,58.04v2.35c-.95.08-2.02.28-3.07.74-1.74.78-3.43,2.28-4.39,5.09-2.37,6.94,1.69,15.99,8.59,16.77,2.54,9.69,9.2,17.72,18,22.1,4.61,2.29,9.8,3.58,15.3,3.58h1.95c4.99,0,9.74-1.06,14.03-2.98,9.43-4.21,16.61-12.54,19.28-22.69,6.98-.68,11.11-9.8,8.72-16.78-1.56-4.58-5.05-5.68-7.59-5.84v-2.34"/>
      <path class="cls-1" d="M36.89,60.29s-2.49-14.84,3.05-28.58c8.11-20.17,30.51-22.81,30.51-22.81,0,0,6.35-6.13,12.05-6.4,4.45-.21.33,6.54,3.01,7.53s9.77-4.16,11.57-3.39c1.3.56,3.12,1.1,3.53,3.11.42,2.01-.56,5.5.51,6.34,13.7,10.85,19.07,24.97,14.24,44.2"/>
      <line class="cls-1" x1="18.18" y1="145.18" x2="24.09" y2="169.08"/>
      <line class="cls-1" x1="133.82" y1="145.18" x2="127.91" y2="169.08"/>
      <path class="cls-1" d="M49.55,52.61c2.06-10.97,11.41-18.69,20.9-23.57l.8.13c2.07,3.07,9.86,10.14,14.26,12.2,3.42,1.61,3.93-.15,3.68-6.95,5.53,5.5,10.52,11.55,14.88,18.01"/>
      <path class="cls-1" d="M58.85,66.43c.22-.27,1.36-1.57,3.32-1.78,2.08-.22,3.52.95,3.76,1.16"/>
      <path class="cls-1" d="M92.91,66.43c-.23-.27-1.36-1.57-3.32-1.78-2.08-.22-3.52.95-3.77,1.16"/>
    </g>
  </g>
</svg>