<?xml version="1.0" encoding="UTF-8"?>
<svg id="_レイヤー_2" data-name="レイヤー 2" xmlns="http://www.w3.org/2000/svg" viewBox="0 0 152.76 170.48">
  <defs>
    <style>
      .cls-1 {
        fill: none;
        stroke: #111;
        stroke-linecap: round;
        stroke-linejoin: round;
        stroke-width: 5px;
      }
    </style>
  </defs>
  <g id="design">
    <g>
      <path class="cls-1" d="M2.5,167.98s1.72-13.76,5.45-22.33c3.73-8.58,9.67-17.2,21.25-23.49,3.39-1.84,8.79-4.08,12.62-5.6,2.62-1.04,4.5-1.74,4.5-1.74l9.15-7.26,6.17,4.01"/>
      <line class="cls-1" x1="28.75" y1="146.32" x2="28.94" y2="167.98"/>
      <line class="cls-1" x1="124.01" y1="146.32" x2="123.82" y2="167.98"/>
      <polyline class="cls-1" points="61.64 104.62 61.64 111.57 76.38 119.7 90.67 111.57 90.67 104.62"/>
      <polyline class="cls-1" points="45.02 116.59 51.52 122.8 63.56 134.29 71.28 125.63"/>
      <path class="cls-1" d="M150.26,167.98s-1.72-13.76-5.45-22.33c-3.73-8.58-9.67-17.2-21.25-23.49-4.28-2.32-11.77-5.29-15.25-6.63-1.16-.45-1.87-.71-1.87-.71l-9.15-7.26-6.17,4.01"/>
      <polyline class="cls-1" points="107.74 116.59 101.42 122.62 89.2 134.29 81.48 125.63"/>
      <path class="cls-1" d="M40.48,55.75v2.35c-1.01.08-2.14.3-3.25.83-1.68.79-3.29,2.28-4.21,5-2.37,6.93,1.68,15.99,8.58,16.76,2.76,10.55,10.4,19.12,20.37,23.16,4,1.62,8.36,2.52,12.94,2.52h1.95c4.76,0,9.29-.96,13.4-2.71,9.74-4.11,17.18-12.57,19.9-22.96,6.99-.67,11.11-9.79,8.73-16.77-1.57-4.58-5.05-5.69-7.6-5.84v-2.34"/>
      <path class="cls-1" d="M49.56,50.32c-.04-2.59.24-8.11,3.53-13.92,2.45-4.32,5.57-7.02,7.53-8.47.31.44.63.88.94,1.32,2.52,2.14,6.46,4.99,11.86,7.15,5.95,2.39,11.24,2.96,14.69,3.07.36-2.45.73-4.9,1.09-7.34,1.98.7,5.83,2.38,9.26,6.16,4.22,4.66,5.29,9.77,5.62,11.85"/>
      <line class="cls-1" x1="50.44" y1="123.93" x2="51.19" y2="167.98"/>
      <line class="cls-1" x1="102.67" y1="123.93" x2="103.42" y2="167.98"/>
      <path class="cls-1" d="M115.4,56.72s4.97-18.25-1.18-31.53c-.68-1.45-2.38-4.7-5.4-8.22-7.82-9.11-17.76-12.1-21.7-13.04-3.46-.82-18.82-4.49-30.21,4.52-2.66,2.11-4.42,4.36-5.47,5.93-4,1.38-6.76,3.34-8.64,5.08-9.03,8.37-10.82,23.77-5.57,39.47.01.02.01.04.02.06"/>
      <path class="cls-1" d="M58.85,64.14c.23-.28,1.36-1.57,3.32-1.78,2.08-.22,3.52.95,3.77,1.16"/>
      <path class="cls-1" d="M92.92,64.14c-.23-.28-1.37-1.57-3.33-1.78-2.08-.22-3.52.95-3.76,1.16"/>
    </g>
  </g>
</svg>