<svg width="64" height="20" viewBox="0 0 64 20" fill="none" xmlns="http://www.w3.org/2000/svg">
<g clip-path="url(#clip0_520_1569)">
<path d="M4.62593 6.44195V5.01536H14.7809V6.44195H4.62593ZM19.3848 1.71637H11.9173L12.6662 1.71429e-06H7.4896L6.80672 1.71637H0V19.3704H19.3848V1.71637ZM4.62593 11.1007V9.74094H14.7809V11.1007H4.62593ZM4.62593 15.9154V14.4442H14.7809V15.9154H4.62593ZM27.9538 5.26055V4.03458H36.5448V5.26055H27.9538ZM39.4085 13.508H41.6994V9.98613H38.0868L37.6462 8.82703H41.4131V0.490391H23.1737V15.3358L22.3146 15.3804V19.3704L34.4081 18.6571V14.734L27.9538 15.0461V13.4857H34.6945L36.9854 19.6156H41.6994L39.4085 13.508ZM27.9538 9.98613V8.82703H32.9763L33.4168 9.98613H27.9538ZM48.6604 6.37508V5.41659H58.8815V6.37508H48.6604ZM63.4193 15.4027H58.7713V13.6863H62.5161V7.4896H63.5294V1.85011H61.7451L62.428 0.222905H58.0003L57.3395 1.85011H55.8636V0H51.4579V1.85011H50.0041L49.5195 0.222905H45.1799L45.7306 1.85011H43.9683V7.4896H44.9596V13.6863H47.603L44.3208 19.5487H49.6516L52.4492 13.6863H54.0132V19.3481H63.3972V15.4027H63.4193ZM49.5855 10.6548V9.49574H57.8682V10.6548H49.5855Z" fill="#DA4544"/>
</g>
<defs>
<clipPath id="clip0_520_1569">
<rect width="63.5294" height="20" fill="white"/>
</clipPath>
</defs>
</svg>
