<?xml version="1.0" encoding="UTF-8"?>
<svg id="_レイヤー_1" data-name="レイヤー_1" xmlns="http://www.w3.org/2000/svg" width="294.2" height="93.3" version="1.1" xmlns:xlink="http://www.w3.org/1999/xlink" viewBox="0 0 294.2 93.3">
  <!-- Generator: Adobe Illustrator 29.1.0, SVG Export Plug-In . SVG Version: 2.1.0 Build 142)  -->
  <defs>
    <style>
      .st0 {
        fill: url(#_名称未設定グラデーション_83);
      }

      .st1 {
        fill: #b8141e;
      }

      .st2 {
        fill: url(#_名称未設定グラデーション_121);
      }

      .st3 {
        fill: url(#_名称未設定グラデーション_122);
      }

      .st4 {
        fill: url(#_名称未設定グラデーション_12);
      }

      .st5 {
        fill: url(#_名称未設定グラデーション_831);
      }

      .st6 {
        fill: #251e1c;
      }

      .st7 {
        fill: url(#_名称未設定グラデーション_123);
      }

      .st8 {
        fill: url(#_名称未設定グラデーション_832);
      }
    </style>
    <linearGradient id="_名称未設定グラデーション_12" data-name="名称未設定グラデーション 12" x1="110" y1="52.4" x2="293.8" y2="53.2" gradientUnits="userSpaceOnUse">
      <stop offset="0" stop-color="#ce6016"/>
      <stop offset="1" stop-color="#d98b11"/>
    </linearGradient>
    <linearGradient id="_名称未設定グラデーション_121" data-name="名称未設定グラデーション 12" x1="110" y1="40.6" x2="293.9" y2="41.4" xlink:href="#_名称未設定グラデーション_12"/>
    <linearGradient id="_名称未設定グラデーション_122" data-name="名称未設定グラデーション 12" x1="110.1" y1="25.1" x2="294" y2="25.9" xlink:href="#_名称未設定グラデーション_12"/>
    <linearGradient id="_名称未設定グラデーション_123" data-name="名称未設定グラデーション 12" x1="110" y1="39.7" x2="293.9" y2="40.5" xlink:href="#_名称未設定グラデーション_12"/>
    <linearGradient id="_名称未設定グラデーション_83" data-name="名称未設定グラデーション 83" x1="36.2" y1="80.3" x2="36.2" y2="26.4" gradientUnits="userSpaceOnUse">
      <stop offset="0" stop-color="#e5bc44"/>
      <stop offset="1" stop-color="#cb5517"/>
    </linearGradient>
    <linearGradient id="_名称未設定グラデーション_831" data-name="名称未設定グラデーション 83" x1="5.7" y1="80.3" x2="5.7" y2="26.4" xlink:href="#_名称未設定グラデーション_83"/>
    <linearGradient id="_名称未設定グラデーション_832" data-name="名称未設定グラデーション 83" x1="44.5" y1="80.3" x2="44.5" y2="26.4" xlink:href="#_名称未設定グラデーション_83"/>
  </defs>
  <g>
    <g>
      <path class="st4" d="M125.7,60.3c.2,0,14.5-6.1,30-8.3l-1.2-7.3c-16.3,2.3-30.9,8.5-31.7,8.8l2.9,6.8Z"/>
      <path class="st2" d="M148.3,33.8c-10.5,1.8-19.9,5-24.8,6.8l2.4,7c4.6-1.7,13.7-4.8,23.7-6.6l-1.2-7.2Z"/>
      <path class="st3" d="M128.1,31h23.6l12.2,12.2,5.2-5.2-7-7h5.6v-7.3h-33.2c1.3-1.6,2.6-3.3,3.8-5h17.6l3,3,5.2-5.2-11.4-11.4h-10.4l6.3,6.3h-17.5l3.1-6.3h-8.2l-3.1,6.3h-5.4v7.3h11.6c-1.4,1.7-2.8,3.4-4.2,5h-15v7.3h7.9c-5.4,5.2-9.5,8.4-9.6,8.5l4.5,5.8c.4-.3,7.5-5.9,15.4-14.3Z"/>
      <path class="st7" d="M286.9,14h-2.4l3.9-8.9h-8l-3.9,8.9h-7.4V5h-7.3v8.9h-7.9l-3.9-8.9h-8l3.9,8.9h-6.3l-4.1,16,7.1,1.8,2.7-10.5h11.1c-5.3,3.1-8.9,8.9-8.9,15.5s2.6,10.7,6.7,14c-.2,2.9-1,5.1-2.5,6.4-2.2,2-5.4,1.8-5.4,1.8h-12.8c-2.3,0-4.4-2-5-2.8l-6.5-7.7c.2-.4.3-.8.5-1.2,0-.3.2-.6.2-.9l6.6-25.1h3.4v-7.3h-14.9c2.4-3.5,4.3-6.6,5.7-8.9h-8.6c-3.2,5-7.8,11.8-13.4,17.9l5.5,4.9c2-2.1,3.8-4.3,5.5-6.5h9.2l-5.3,20.5-5.3-6.4-5.8,4.5,7.8,9.3c-3.6,4.3-9.1,6.8-15.1,6.8h-2.5v-17.7h7v-7.3h-7v-12.3h5.1v-7.3h-22.7v7.3h10.2v37.3h-5.4v-25h-7.3v25h-9.6c-21.5,0-45.8,12.1-46.8,12.6l3.3,6.6c.2-.1,23.8-11.8,43.5-11.8h32.2c7.7,0,14.9-3.1,19.9-8.4l4.9,5.8c.4.6,4.5,5.6,10.8,5.6h12.3c.2,0,.5,0,1,0,2.1,0,6.3-.4,9.9-3.6,2.3-2.1,3.9-4.9,4.6-8.5,1.4.4,2.9.6,4.5.6s3.2-.2,4.6-.6v12.1h24.2v-7.3h-16.9v-8.8c3.7-3.3,6.1-8.1,6.1-13.5s-3.6-12.4-8.9-15.5h12.4v9.7h7.3V14h-7.3Z"/>
    </g>
    <path class="st1" d="M276.3,36.8c0,5.9-4.9,10.9-10.9,10.9s-10.9-4.9-10.9-10.9,4.9-10.9,10.9-10.9,10.9,5,10.9,10.9Z"/>
    <g>
      <path class="st6" d="M159.7,91c.3.1.5.3.8.4.3.1.6.2.8.3.3,0,.6.1.9.2.3,0,.7,0,1,0s.8,0,1.1,0,.6-.1.8-.2c.2-.1.3-.2.4-.4s.1-.3.1-.5c0-.3-.1-.5-.3-.6-.2-.2-.6-.2-1-.2s-.4,0-.6,0-.5,0-.7,0-.5,0-.7,0c-.2,0-.4,0-.6,0-.3,0-.6,0-.9-.1-.3,0-.6-.2-.8-.4-.2-.2-.4-.4-.6-.6-.1-.3-.2-.5-.2-.9s0-.4,0-.6c0-.2.1-.4.3-.6.1-.2.3-.3.5-.5.2-.2.4-.3.7-.4.3-.1.6-.2.9-.3.4,0,.8,0,1.2,0s.7,0,1,0c.3,0,.7,0,1,.2s.6.1.9.2.6.2.8.3l-.6,1.2c-.2,0-.4-.2-.7-.3-.2,0-.5-.1-.7-.2-.3,0-.5-.1-.8-.1s-.6,0-.8,0c-.4,0-.7,0-1,0-.3,0-.5.1-.6.2-.2,0-.3.2-.3.3s0,.2,0,.3c0,.2,0,.4.3.5s.5.2.9.2.3,0,.6,0,.4,0,.7,0c.2,0,.5,0,.7,0,.2,0,.5,0,.7,0,.4,0,.8,0,1.1.1s.6.2.8.4.4.4.5.6c.1.3.2.5.2.9s0,.8-.3,1.1c-.2.3-.5.6-.8.8s-.8.4-1.3.5c-.5.1-1.1.2-1.7.2s-.8,0-1.2,0-.8-.1-1.1-.2-.7-.2-1-.3c-.3-.1-.6-.3-.9-.4l.8-1.2Z"/>
      <path class="st6" d="M174.5,85.9h1.6l3.5,7.3h-1.6l-.6-1.2h-4.3l-.6,1.2h-1.6l3.4-7.3ZM176.8,90.8l-1.6-3.3-1.5,3.3h3.1Z"/>
      <path class="st6" d="M183.9,85.9h1.5l4.6,2.4v-2.4h1.5v7.3h-1.5v-3.4l-4.6-2.4v5.7h-1.5v-7.3Z"/>
      <path class="st6" d="M197.3,91c.3.1.5.3.8.4.3.1.6.2.8.3.3,0,.6.1.9.2s.7,0,1,0,.8,0,1.1,0,.6-.1.8-.2c.2-.1.3-.2.4-.4s.1-.3.1-.5c0-.3-.1-.5-.3-.6-.2-.2-.6-.2-1-.2s-.4,0-.6,0-.5,0-.7,0-.5,0-.7,0c-.2,0-.4,0-.6,0-.3,0-.6,0-.9-.1-.3,0-.6-.2-.8-.4-.2-.2-.4-.4-.6-.6-.1-.3-.2-.5-.2-.9s0-.4,0-.6c0-.2.1-.4.3-.6.1-.2.3-.3.5-.5.2-.2.4-.3.7-.4.3-.1.6-.2.9-.3.4,0,.8,0,1.2,0s.7,0,1,0c.3,0,.7,0,1,.2s.6.1.9.2.6.2.8.3l-.6,1.2c-.2,0-.4-.2-.7-.3-.2,0-.5-.1-.7-.2-.3,0-.5-.1-.8-.1s-.6,0-.8,0c-.4,0-.7,0-1,0-.3,0-.5.1-.6.2-.2,0-.3.2-.3.3s0,.2,0,.3c0,.2,0,.4.3.5s.5.2.9.2.3,0,.6,0,.4,0,.7,0c.2,0,.5,0,.7,0,.2,0,.5,0,.7,0,.4,0,.8,0,1.1.1s.6.2.8.4.4.4.5.6c.1.3.2.5.2.9s0,.8-.3,1.1c-.2.3-.5.6-.8.8-.4.2-.8.4-1.3.5-.5.1-1.1.2-1.7.2s-.8,0-1.2,0-.8-.1-1.1-.2-.7-.2-1-.3c-.3-.1-.6-.3-.9-.4l.8-1.2Z"/>
      <path class="st6" d="M209.8,85.9h6.2v1.3h-4.7v1.5h4.2v1.2h-4.2v2h4.8v1.3h-6.3v-7.3Z"/>
      <path class="st6" d="M221.4,85.9h1.5v7.3h-1.5v-7.3Z"/>
      <path class="st6" d="M230.8,87.2h-2.7v-1.3h6.9v1.3h-2.7v6h-1.5v-6Z"/>
      <path class="st6" d="M238.1,89.5c0-.6.1-1.1.3-1.5s.5-.9.9-1.2.8-.6,1.3-.8,1.1-.3,1.7-.3,1.2,0,1.7.3,1,.4,1.3.8.7.7.9,1.2.3,1,.3,1.5-.1,1.1-.3,1.5-.5.9-.9,1.2c-.4.3-.8.6-1.3.8s-1.1.3-1.7.3-1.2,0-1.7-.3-1-.4-1.3-.8-.7-.7-.9-1.2-.3-1-.3-1.5ZM239.6,89.5c0,.4,0,.7.2,1s.3.6.6.8.5.4.9.5.7.2,1.1.2.7,0,1.1-.2.6-.3.9-.5.4-.5.6-.8.2-.6.2-1,0-.7-.2-1-.3-.6-.6-.8c-.2-.2-.5-.4-.9-.5s-.7-.2-1.1-.2-.7,0-1.1.2-.6.3-.9.5-.4.5-.6.8-.2.6-.2,1Z"/>
    </g>
  </g>
  <g>
    <path class="st0" d="M25.5,59.3c.3.1.5.2.8.3-10.2-5.2-14.2-18.1-9.1-29.1,4.4-9.4,14.1-14.5,23.4-13.1-6-2.9-12.5-3.7-19.2-2-.1.1-.4.3-.1,0,10.6-10.4,25.4-10.4,42.3-2.8-2.8-4.2-6.7-7.7-11.6-10-14.8-6.9-32.8.2-40.1,15.8-7.3,15.6-1.2,33.9,13.6,40.9Z"/>
    <path class="st5" d="M4.6,42.4c2.4,3.6,4.8,5.2,6.7,6.9-4.3-5.5-6.2-12.2-6.3-16.2,0-3.7,1-8.9,2.3-12.4-1.9,2.2-3.5,4.6-4.7,7.3-1.5,3.4-2.4,6.9-2.6,10.5-.6,9.6,2.9,20.3,9.2,27.8-3.9-8.3-6.1-21.7-4.6-23.9Z"/>
    <path class="st8" d="M82.1,40c0-.2,0-.4,0-.6-.5-15-9.1-27.9-21.6-34.6,8.2,7.8,13.4,18.7,13.4,30.9s-1.2,11.2-3.3,16.5c-1.6,4-4.3,7.4-7.3,10.5-1.6-17.6-8.2-22-8.2-22,7.2-6.1,16.4-25.2,1.1-23.4,1.6,0,10.9,12.4-13,6.6-10.2-2.5-21,8.6-21.7,18.7,0,0,.4-.4,1-1,2.1-1.9,6.9-5.9,10.9-5.1,2.9.5,5.1,2.5,6.3,5.2s1.1,3.2,1.3,4.9c.2,1.8.4,3.7.2,5.5s-.8,3.5-1.5,5.2c-1,2.2-2.3,4.3-4,6-.8.7-1.6,1.4-2.5,2-.7.4-1.4.8-2.1,1.1-.8.3-1.6.5-2.4.7-9.7,1.8-19.4-7.1-21.8-19.8-.5,13.9,5.2,22.6,16.4,29.5h.1c1.2.8,2.5,1.5,3.9,2.1,4.9,2.1,10.1,2.8,15.3,2.8s10.1-.9,14.8-2.8c4.1-1.7,7.8-4.1,11.1-7.1,8.9-7.9,13.5-19,13.6-30.1,0-.3,0-.5,0-.8s0-.5,0-.7Z"/>
  </g>
  <metadata>
    <sfw xmlns="http://ns.adobe.com/SaveForWeb/1.0/">
      <slices/>
      <sliceSourceBounds x="392.93" y="-589.1" width="294.21" height="93.32" bottomLeftOrigin="true"/>
    </sfw>
  </metadata>
</svg>