<?xml version="1.0" encoding="UTF-8"?>
<svg id="_レイヤー_2" xmlns="http://www.w3.org/2000/svg" xmlns:xlink="http://www.w3.org/1999/xlink" version="1.1" viewBox="0 0 262.6 62.8">
  <!-- Generator: Adobe Illustrator 29.3.1, SVG Export Plug-In . SVG Version: 2.1.0 Build 151)  -->
  <defs>
    <style>
      .st0 {
        fill: url(#_名称未設定グラデーション_9);
      }

      .st0, .st1, .st2, .st3, .st4, .st5, .st6, .st7, .st8 {
        fill-rule: evenodd;
      }

      .st1 {
        fill: url(#_名称未設定グラデーション_6);
      }

      .st2 {
        fill: url(#_名称未設定グラデーション_5);
      }

      .st3 {
        fill: url(#_名称未設定グラデーション_3);
      }

      .st4 {
        fill: url(#_名称未設定グラデーション_2);
      }

      .st5 {
        fill: url(#_名称未設定グラデーション_4);
      }

      .st6 {
        fill: url(#_名称未設定グラデーション_7);
      }

      .st7 {
        fill: url(#_名称未設定グラデーション_8);
      }

      .st9 {
        font-family: ReggaeOne-Regular, 'Reggae One';
        font-size: 31.1px;
      }

      .st8 {
        fill: url(#_名称未設定グラデーション);
      }
    </style>
    <linearGradient id="_名称未設定グラデーション" data-name="名称未設定グラデーション" x1="42.9" y1="113.7" x2="44" y2="136.1" gradientTransform="translate(0 -98)" gradientUnits="userSpaceOnUse">
      <stop offset="0" stop-color="#22c744"/>
      <stop offset=".6" stop-color="#079d6b"/>
      <stop offset="1" stop-color="#07796b"/>
    </linearGradient>
    <linearGradient id="_名称未設定グラデーション_2" data-name="名称未設定グラデーション 2" x1="49.1" y1="98.9" x2="49.7" y2="132.4" gradientTransform="translate(0 -98)" gradientUnits="userSpaceOnUse">
      <stop offset="0" stop-color="#22c744"/>
      <stop offset=".6" stop-color="#079d6b"/>
      <stop offset="1" stop-color="#07796b"/>
    </linearGradient>
    <linearGradient id="_名称未設定グラデーション_3" data-name="名称未設定グラデーション 3" x1="35.5" y1="145.1" x2="12.9" y2="135.8" gradientTransform="translate(0 -98)" gradientUnits="userSpaceOnUse">
      <stop offset="0" stop-color="#22c744"/>
      <stop offset=".6" stop-color="#079d6b"/>
      <stop offset="1" stop-color="#07796b"/>
    </linearGradient>
    <linearGradient id="_名称未設定グラデーション_4" data-name="名称未設定グラデーション 4" x1="50.4" y1="150.3" x2="22.8" y2="150" gradientTransform="translate(0 -98)" gradientUnits="userSpaceOnUse">
      <stop offset="0" stop-color="#22c744"/>
      <stop offset=".6" stop-color="#079d6b"/>
      <stop offset="1" stop-color="#07796b"/>
    </linearGradient>
    <linearGradient id="_名称未設定グラデーション_5" data-name="名称未設定グラデーション 5" x1="49.9" y1="133.7" x2="40" y2="153.4" gradientTransform="translate(0 -98)" gradientUnits="userSpaceOnUse">
      <stop offset="0" stop-color="#22c744"/>
      <stop offset=".6" stop-color="#079d6b"/>
      <stop offset="1" stop-color="#07796b"/>
    </linearGradient>
    <linearGradient id="_名称未設定グラデーション_6" data-name="名称未設定グラデーション 6" x1="3.7" y1="145.6" x2="17.8" y2="118.4" gradientTransform="translate(0 -98)" gradientUnits="userSpaceOnUse">
      <stop offset="0" stop-color="#22c744"/>
      <stop offset=".6" stop-color="#079d6b"/>
      <stop offset="1" stop-color="#07796b"/>
    </linearGradient>
    <linearGradient id="_名称未設定グラデーション_7" data-name="名称未設定グラデーション 7" x1="8.7" y1="127.8" x2="30.3" y2="119.8" gradientTransform="translate(0 -98)" gradientUnits="userSpaceOnUse">
      <stop offset="0" stop-color="#22c744"/>
      <stop offset=".6" stop-color="#079d6b"/>
      <stop offset="1" stop-color="#07796b"/>
    </linearGradient>
    <linearGradient id="_名称未設定グラデーション_8" data-name="名称未設定グラデーション 8" x1="-12.1" y1="138.8" x2="24.8" y2="113.7" gradientTransform="translate(0 -98)" gradientUnits="userSpaceOnUse">
      <stop offset="0" stop-color="#22c744"/>
      <stop offset=".6" stop-color="#079d6b"/>
      <stop offset="1" stop-color="#07796b"/>
    </linearGradient>
    <linearGradient id="_名称未設定グラデーション_9" data-name="名称未設定グラデーション 9" x1="41.1" y1="104" x2="43.8" y2="124.5" gradientTransform="translate(0 -98)" gradientUnits="userSpaceOnUse">
      <stop offset="0" stop-color="#22c744"/>
      <stop offset=".6" stop-color="#079d6b"/>
      <stop offset="1" stop-color="#07796b"/>
    </linearGradient>
  </defs>
  <g id="Layer_1">
    <path class="st8" d="M29.1,22.8c3.6,5.1,12.4,5,18.2,8.5.9.6,1.9,1.3,2.7,2.1.6.5,1.1,1.1,1.8,1.8,3.8,4.7,4.3,11.4,1,16.6,5.6-3.9,8.4-10.6,7.1-17.3-.2-1.3-.5-2.7-1-3.8-2-4.2-7-6.8-11.9-7.8-2.6-.5-5.3-.5-7.8-.7-1.3-.2-2.7-.4-4-.7-3-.9-5.8-2.8-8.6-4.6.6,2.2,1.2,4.3,2.5,6h0Z"/>
    <path class="st4" d="M47,22.9c4.9.9,9.9,3.5,11.9,7.8.5,1.1.8,2.5,1,3.8-.6-3.5-1.2-6.9-2.2-10.3-1-3.6-2.5-7.2-4.7-10.3-1.1-1.6-2.5-2.9-3.9-4.3.7,2.2,1.3,4.3.9,6.5-.3,1.6-1.1,3.2-2.4,4.2-2.2,1.9-5.3,1.9-8.5,2,2.5.2,5.2.2,7.8.7h.1Z"/>
    <path class="st3" d="M4.9,40.9c.6,6.7,5.1,12.5,11.4,14.9,1.3.4,2.6.7,3.9.9,4.5.4,9.4-2.7,12.6-6.4,1.8-2.1,3.1-4.2,4.4-6.3.8-1.1,1.8-2.3,2.7-3.2,2.3-2.2,5.3-3.6,8.4-5.1-2.3-.5-4.5-1.1-6.5-.9-6.2.7-10.4,8.4-16.4,11.6-1,.5-2.1.9-3.1,1.2-.8.3-1.6.5-2.5.6-5.9,1-12-1.9-14.9-7.3h0Z"/>
    <path class="st5" d="M32.8,50.3c-3.2,3.7-8.1,6.8-12.6,6.4-1.3-.2-2.6-.5-3.9-.9,3.3,1.1,6.6,2.3,10.1,3.2,3.6.9,7.4,1.5,11.2,1.1,2-.2,3.8-.7,5.8-1.2-2.3-.5-4.4-1-6.2-2.5-1.2-1-2.2-2.6-2.4-4.1-.6-2.8.9-5.5,2.5-8.3-1.3,2.1-2.7,4.2-4.4,6.3h-.1Z"/>
    <path class="st2" d="M42.5,45.4c-2.7,0-4.9,2.2-4.9,4.9s2.2,5,4.9,5,4.9-2.3,4.9-5-2.2-4.9-4.9-4.9h0Z"/>
    <path class="st1" d="M6.4,32.7c0,2.7,2.3,4.9,5,4.9s4.9-2.2,4.9-4.9-2.2-5-4.9-5-5,2.2-5,5h0Z"/>
    <path class="st6" d="M16.1,24.3c.9,2.5,2.2,4.8,3.2,7,.6,1.2,1.1,2.6,1.5,3.9.7,3,.5,6.4.3,9.7,1.5-1.7,3.1-3.3,3.9-5.2,2.6-5.7-2-13.2-1.8-20,.1-1.1.2-2.3.5-3.4.1-.8.3-1.6.6-2.4,2.1-5.6,7.6-9.4,13.9-9.2-6.2-2.9-13.3-1.9-18.6,2.4-.9.9-2,1.9-2.7,2.9-2.7,3.8-2.5,9.4-.8,14.2h0Z"/>
    <path class="st7" d="M8.7,25c1.5-.5,3.3-.6,4.8,0,2.7.9,4.3,3.6,5.9,6.3-1-2.3-2.3-4.6-3.2-7-1.7-4.8-1.9-10.3.8-14.2.7-1,1.8-2,2.7-2.9-2.6,2.3-5.3,4.6-7.8,7.1s-5.1,5.7-6.6,9.1c-.9,1.9-1.4,3.8-1.9,5.6,1.5-1.6,3.1-3.3,5.3-4h0Z"/>
    <path class="st0" d="M37.2,14.6c0,2.7,2.2,4.9,4.9,4.9s5-2.2,5-4.9-2.3-5-5-5-4.9,2.3-4.9,5h0Z"/>
  </g>
  <text class="st9" transform="translate(73.2 42.3)"><tspan x="0" y="0">みんなの政治</tspan></text>
</svg>