<?xml version="1.0" encoding="UTF-8"?>
<svg id="_レイヤー_2" xmlns="http://www.w3.org/2000/svg" xmlns:xlink="http://www.w3.org/1999/xlink" version="1.1" viewBox="0 0 56.8 57.1">
  <!-- Generator: Adobe Illustrator 29.3.1, SVG Export Plug-In . SVG Version: 2.1.0 Build 151)  -->
  <defs>
    <style>
      .st0 {
        fill: url(#_名称未設定グラデーション_1088);
      }

      .st0, .st1, .st2, .st3, .st4, .st5, .st6, .st7, .st8 {
        fill-rule: evenodd;
      }

      .st1 {
        fill: url(#_名称未設定グラデーション_1085);
      }

      .st2 {
        fill: url(#_名称未設定グラデーション_1087);
      }

      .st3 {
        fill: url(#_名称未設定グラデーション_1084);
      }

      .st4 {
        fill: url(#_名称未設定グラデーション_1082);
      }

      .st5 {
        fill: url(#_名称未設定グラデーション_1081);
      }

      .st6 {
        fill: url(#_名称未設定グラデーション_1083);
      }

      .st7 {
        fill: url(#_名称未設定グラデーション_1086);
      }

      .st8 {
        fill: url(#_名称未設定グラデーション_108);
      }
    </style>
    <linearGradient id="_名称未設定グラデーション_108" data-name="名称未設定グラデーション 108" x1="39.5" y1="45.4" x2="40.6" y2="23" gradientTransform="translate(0 57.9) scale(1 -1)" gradientUnits="userSpaceOnUse">
      <stop offset="0" stop-color="#22c744"/>
      <stop offset=".6" stop-color="#079d6b"/>
      <stop offset="1" stop-color="#07796b"/>
    </linearGradient>
    <linearGradient id="_名称未設定グラデーション_1081" data-name="名称未設定グラデーション 108" x1="45.7" y1="60.2" x2="46.3" y2="26.7" xlink:href="#_名称未設定グラデーション_108"/>
    <linearGradient id="_名称未設定グラデーション_1082" data-name="名称未設定グラデーション 108" x1="32" y1="14" x2="9.4" y2="23.3" xlink:href="#_名称未設定グラデーション_108"/>
    <linearGradient id="_名称未設定グラデーション_1083" data-name="名称未設定グラデーション 108" x1="47" y1="8.8" x2="19.4" y2="9.1" xlink:href="#_名称未設定グラデーション_108"/>
    <linearGradient id="_名称未設定グラデーション_1084" data-name="名称未設定グラデーション 108" x1="46.4" y1="25.4" x2="36.5" y2="5.7" xlink:href="#_名称未設定グラデーション_108"/>
    <linearGradient id="_名称未設定グラデーション_1085" data-name="名称未設定グラデーション 108" x1=".2" y1="13.5" x2="14.3" y2="40.7" xlink:href="#_名称未設定グラデーション_108"/>
    <linearGradient id="_名称未設定グラデーション_1086" data-name="名称未設定グラデーション 108" x1="5.3" y1="31.2" x2="26.9" y2="39.2" xlink:href="#_名称未設定グラデーション_108"/>
    <linearGradient id="_名称未設定グラデーション_1087" data-name="名称未設定グラデーション 108" x1="-15.5" y1="20.3" x2="21.4" y2="45.4" xlink:href="#_名称未設定グラデーション_108"/>
    <linearGradient id="_名称未設定グラデーション_1088" data-name="名称未設定グラデーション 108" x1="37.6" y1="55.1" x2="40.3" y2="34.6" xlink:href="#_名称未設定グラデーション_108"/>
  </defs>
  <g id="Layer_1">
    <path class="st8" d="M25.7,19.6c3.6,5.1,12.4,5,18.2,8.5.9.6,1.9,1.3,2.7,2.1.6.5,1.1,1.1,1.8,1.8,3.8,4.7,4.3,11.4,1,16.6,5.6-3.9,8.4-10.6,7.1-17.3-.2-1.3-.5-2.7-1-3.8-2-4.2-7-6.8-11.9-7.8-2.6-.5-5.3-.5-7.8-.7-1.3-.2-2.7-.4-4-.7-3-.9-5.8-2.8-8.6-4.6.6,2.2,1.2,4.3,2.5,6h0Z"/>
    <path class="st5" d="M43.6,19.7c4.9.9,9.9,3.5,11.9,7.8.5,1.1.8,2.5,1,3.8-.6-3.5-1.2-6.9-2.2-10.3-1-3.6-2.5-7.2-4.7-10.3-1.1-1.6-2.5-2.9-3.9-4.3.7,2.2,1.3,4.3.9,6.5-.3,1.6-1.1,3.2-2.4,4.2-2.2,1.9-5.3,1.9-8.5,2,2.5.2,5.2.2,7.8.7h0Z"/>
    <path class="st4" d="M1.5,37.7c.6,6.7,5.1,12.5,11.4,14.9,1.3.4,2.6.7,3.9.9,4.5.4,9.4-2.7,12.6-6.4,1.8-2.1,3.1-4.2,4.4-6.3.8-1.1,1.8-2.3,2.7-3.2,2.3-2.2,5.3-3.6,8.4-5.1-2.3-.5-4.5-1.1-6.5-.9-6.2.7-10.4,8.4-16.4,11.6-1,.5-2.1.9-3.1,1.2-.8.3-1.6.5-2.5.6-5.9,1-12-1.9-14.9-7.3h0Z"/>
    <path class="st6" d="M29.4,47.1c-3.2,3.7-8.1,6.8-12.6,6.4-1.3-.2-2.6-.5-3.9-.9,3.3,1.1,6.6,2.3,10.1,3.2,3.6.9,7.4,1.5,11.2,1.1,2-.2,3.8-.7,5.8-1.2-2.3-.5-4.4-1-6.2-2.5-1.2-1-2.2-2.6-2.4-4.1-.6-2.8.9-5.5,2.5-8.3-1.3,2.1-2.7,4.2-4.4,6.3h0Z"/>
    <path class="st3" d="M39.1,42.2c-2.7,0-4.9,2.2-4.9,4.9s2.2,5,4.9,5,4.9-2.3,4.9-5-2.2-4.9-4.9-4.9h0Z"/>
    <path class="st1" d="M3,29.5c0,2.7,2.3,4.9,5,4.9s4.9-2.2,4.9-4.9-2.2-5-4.9-5-5,2.2-5,5h0Z"/>
    <path class="st7" d="M12.7,21.1c.9,2.5,2.2,4.8,3.2,7,.6,1.2,1.1,2.6,1.5,3.9.7,3,.5,6.4.3,9.7,1.5-1.7,3.1-3.3,3.9-5.2,2.6-5.7-2-13.2-1.8-20,.1-1.1.2-2.3.5-3.4.1-.8.3-1.6.6-2.4,2.1-5.6,7.6-9.4,13.9-9.2-6.2-2.9-13.3-1.9-18.6,2.4-.9.9-2,1.9-2.7,2.9-2.7,3.8-2.5,9.4-.8,14.2h0Z"/>
    <path class="st2" d="M5.3,21.8c1.5-.5,3.3-.6,4.8,0,2.7.9,4.3,3.6,5.9,6.3-1-2.3-2.3-4.6-3.2-7-1.7-4.8-1.9-10.3.8-14.2.7-1,1.8-2,2.7-2.9-2.6,2.3-5.3,4.6-7.8,7.1-2.7,2.7-5.1,5.7-6.6,9.1C1,22.1.5,24,0,25.8c1.5-1.6,3.1-3.3,5.3-4h0Z"/>
    <path class="st0" d="M33.8,11.4c0,2.7,2.2,4.9,4.9,4.9s5-2.2,5-4.9-2.3-5-5-5-4.9,2.3-4.9,5h0Z"/>
  </g>
</svg>